<svg fill="none" height="400" viewBox="0 0 400 400" width="400" xmlns="http://www.w3.org/2000/svg"><path d="m0 0h400v400h-400z" fill="#fff"/><path d="m193.729 60.0511c-6.491-11.2803-9.744-16.9206-13.984-18.8101-3.704-1.6535-7.929-1.6535-11.632-.0072-4.247 1.8896-7.5 7.5227-14.013 18.7959l-100.7723 174.4893c-6.5063 11.273-9.7662 16.906-9.2803 21.53.422 4.037 2.5312 7.701 5.8125 10.092 3.7535 2.734 10.2598 2.741 23.2645 2.749l36.1906.021c4.812 0 7.221 0 9.373-.694 1.909-.616 3.661-1.632 5.155-2.971 1.68-1.517 2.888-3.6 5.298-7.773l37.02-64.104c.214-.372.45-.723.701-1.045 3.767-4.845 11.467-4.495 14.663 1.053l43.798 76.056c.393.681.679 1.382.872 2.083 1.516 5.44-2.516 11.238-8.565 11.231l-72.539-.05c-4.811 0-7.221 0-9.373.694-1.909.615-3.66 1.632-5.154 2.97-1.681 1.518-2.889 3.601-5.298 7.774l-18.117 31.365c-6.506 11.272-9.7661 16.906-9.2802 21.529.422 4.037 2.5312 7.702 5.8122 10.093 3.754 2.734 10.26 2.741 23.265 2.748l199.921.129c13.005.007 19.504.014 23.265-2.72 3.28-2.383 5.399-6.048 5.821-10.078.483-4.624-2.762-10.264-9.253-21.544z" fill="#000"/></svg>