<svg fill="none" height="400" viewBox="0 0 400 400" width="400" xmlns="http://www.w3.org/2000/svg"><path d="m0 0h400v400h-400z" fill="#fff"/><path d="m242.557 123.224c9.318-9.317 24.489-9.317 33.807 0 9.318 9.316 9.318 24.484 0 33.8-5.398 5.397-12.785 7.84-20.284 6.76-.341-.056-.739-.056-1.08 0-2.216-.284-4.546 0-6.761 1.023-3.125 1.42-5.341 4.033-6.421 7.044-1.079 2.954-1.022 6.306.398 9.317 8.011 17.326 4.318 38.061-9.205 51.581-13.522 13.52-34.261 17.213-51.591 9.203-3.124-1.42-6.477-1.477-9.488-.341-2.955 1.08-5.455 3.295-6.875 6.363-.909 1.988-1.25 4.033-1.137 6.078-.056.398-.056.796 0 1.193 1.251 7.612-1.249 15.395-6.704 20.849-9.318 9.316-24.489 9.316-33.807 0-4.545-4.545-6.989-10.51-6.989-16.929 0-6.363 2.5-12.384 6.989-16.929 5.398-5.397 12.784-7.839 20.284-6.76h.398c.795.17 1.591.284 2.443.284 1.761 0 3.523-.341 5.171-1.136 3.068-1.42 5.227-3.92 6.363-6.817 1.136-3.011 1.136-6.419-.341-9.544-8.011-17.326-4.318-38.061 9.205-51.581 13.523-13.521 34.261-17.213 51.591-9.203 3.068 1.42 6.477 1.477 9.431.398 2.955-1.08 5.512-3.295 6.932-6.363 1.08-2.386 1.364-4.942.966-7.385v-.057c-1.25-7.612 1.25-15.395 6.705-20.848zm-23.637 95.437c10.341-10.339 10.341-27.098 0-37.436-10.341-10.34-27.102-10.34-37.443 0-10.341 10.338-10.341 27.097 0 37.436s27.102 10.339 37.443 0zm-18.92-178.661c88.352 0 160 71.635 160 159.971s-71.591 160.029-160 160.029-160-71.636-160-160.029 71.648-159.971 160-159.971zm85.284 125.943c14.148-14.145 14.148-37.039 0-51.184s-37.045-14.145-51.193 0c-5.227 5.226-8.523 11.703-9.887 18.463-25.624-9.658-55.056-3.522-74.658 16.076-19.603 19.599-25.739 49.026-16.023 74.703-6.818 1.363-13.296 4.658-18.58 9.941-14.147 14.145-14.147 37.039 0 51.184 14.148 14.145 37.046 14.145 51.193 0 5.285-5.283 8.637-11.873 9.944-18.69 7.954 2.954 16.25 4.431 24.488 4.431 18.352 0 36.477-7.101 49.943-20.564 19.489-19.485 25.682-48.741 16.194-74.362 6.761-1.42 13.295-4.715 18.579-9.998z" fill="#000"/></svg>