<svg fill="none" height="400" viewBox="0 0 400 400" width="400" xmlns="http://www.w3.org/2000/svg"><path d="m0 0h400v400h-400z" fill="#000"/><path d="m290.654 194.465 4.587-.301 4.587-46.509 47.085 14.385 2.138-4.59-40.973-26.92 33.748-32.0741-3-4.078-41.748 20.5281-10.699-42.8322-4.587.3002-3.363 44.058-47.085-14.386-2.137 4.278 40.973 27.233-50.448 42.219 4.275 6.117 56.872-32.737zm-59.622 165.535c18.349 0 33.323-5.504 33.323-12.547v-10.095c0-7.343 6.724-9.482 8.562-10.708 7.637-4.891 13.449-12.846 13.449-30.898 0-11.02 3.362-18.663 7.337-25.394l12.837 8.569 17.737-14.686-9.175-20.19c4.275-4.891 7.949-10.095 11.012-15.599l22.324 2.452 8.562-21.416-18.649-14.385c1.837-10.408 2.137-15.299 2.137-17.438l-23.236-7.043c.613 21.416-6.724 43.445-22.924 60.895-17.424 18.664-28.435 35.489-28.435 59.97 0 7.042-2.138 11.621-7.338 14.686-5.5 3.677-14.374 5.204-27.511 5.204-12.836 0-22.011-1.527-27.511-5.204-5.199-3.065-7.337-7.644-7.337-14.686 0-10.283-.212-26.72-21.548-52.464-11.525 7.268-25.624 18.038-35.324 26.457l16.2 13.772 12.836-8.568c3.063 4.591 5.5 9.795 6.425 14.999-24.461 11.621-45.86 19.889-62.372 24.48-23.5358 6.43-29.348 2.452-30.8729.613-.9125-1.226-.9125-3.065-.6125-4.891 1.7874-9.745 15.4492-25.694 37.7234-44.646 27.848-23.705 36.923-29.622 90.982-69.051l-4.274-6.117c-11.312 7.343-31.174 20.065-47.986 31.386-7.949-13.16-12.536-28.759-12.536-44.671 0-47.423 38.522-86.289 85.907-86.289 11.312 0 22.324 2.1391 32.411 6.4298l2.137-26.0068c-5.5-1.8389-11.011-3.365-16.512-4.2782l-6.424-22.6418h-22.924l-6.424 22.942c-7.95 1.2259-13.762 3.0648-17.124 4.2782l-16.512-17.488-20.174 11.0207 4.887 23.2548c-4.587 3.6777-8.862 7.3429-13.149 11.9338l-22.323-7.6431-12.837 18.9646 15.287 18.363c-2.45 5.204-4.275 10.708-6.113 16.525l-23.236 3.978-2.4499 22.942 22.0109 8.569c.613 9.182 1.838 15.599 2.45 17.75l-18.649 14.386 8.562 21.416 22.624-2.452c.3.913.912 1.839 1.525 2.752-54.722 39.78-89.8825 75.268-93.5573 94.545-.6125 3.678 0 7.043 1.8374 9.482 2.4498 3.365 7.0371 4.891 13.4492 4.891 23.8487 0 72.4587-21.728 116.1807-47.422v2.752c0 18.051 5.812 26.007 13.762 30.897 1.838 1.227 8.249 3.679 8.249 10.709v10.095c0 7.042 14.987 12.559 33.324 12.559z" fill="#fff"/></svg>