<svg fill="none" height="400" viewBox="0 0 400 400" width="400" xmlns="http://www.w3.org/2000/svg" xmlns:xlink="http://www.w3.org/1999/xlink"><clipPath id="a"><path d="m40 41h320v320h-320z"/></clipPath><path d="m0 0h400v400h-400z" fill="#000"/><g clip-path="url(#a)" fill="#fff"><path d="m199.793 41.1035c-85.602 0-155.7208 67.6615-159.5865 152.3675h11.0801c3.8657-78.542 68.9824-141.2803 148.5064-141.2803 82.233 0 149.127 66.7093 149.127 148.7063 0 82.099-66.894 148.912-149.127 148.912-10.046 0-19.762-1.055-29.271-2.937v11.294c9.509 1.676 19.225 2.731 29.271 2.731 88.29 0 160.207-71.84 160.207-160 0-88.057-71.917-159.7935-160.207-159.7935z"/><path d="m52.5477 221.499h-11.1834c7.6279 58.974 47.4418 108.018 101.1477 128.724v-11.915c-47.5457-19.982-82.6464-64-89.9643-116.809z"/><path clip-rule="evenodd" d="m314.646 161.781c0 42.777-29.065 54.174-46.305 54.174h-103.462v141.073c-4.279-.848-13.272-3.454-16.827-4.819 0-4.489.103-136.254.103-136.254h-107.2247c-.5168-4.281-.8268-12.245-.7235-16.837h107.9482v-61.394c0-.31-.103-2.089-.103-2.089 0-3.972.744-13.694 7.318-20.81 3.245-3.557 9.199-7.736 19.018-7.736h84.341c19.328.311 55.917 12.246 55.917 54.692zm-16.827 0c0-29.063-24.661-37.44-39.194-37.854h-84.237c-3.122 0-5.334.724-6.677 2.296-2.522 2.627-2.832 7.633-2.832 9.722v63.173h103.462c4.92 0 29.478-1.779 29.478-37.337z" fill-rule="evenodd"/></g></svg>