<svg fill="none" height="400" viewBox="0 0 400 400" width="400" xmlns="http://www.w3.org/2000/svg"><path d="m0 0h400v400h-400z" fill="#000"/><path d="m138.86 52.1419c29.239-12.0901 61.406-15.24 92.434-9.0517 31.028 6.1882 59.525 21.4369 81.889 43.8183 22.363 22.3815 37.588 50.8915 43.752 81.9245 6.163 31.034 2.987 63.198-9.126 92.426-12.114 29.229-32.622 54.21-58.931 71.785-26.309 17.576-57.239 26.956-88.878 26.956v-34.897c24.769 0 48.981-7.345 69.575-21.106 20.595-13.76 36.647-33.319 46.125-56.202 9.479-22.883 11.958-48.063 7.126-72.356s-16.759-46.607-34.273-64.121c-17.514-17.5144-39.829-29.4416-64.121-34.2737-24.293-4.8322-49.473-2.3526-72.357 7.1259-22.883 9.4786-42.441 25.5308-56.202 46.1248-13.7607 20.595-21.1054 44.807-21.1054 69.575h-34.7676c.0256-31.639 9.4317-62.56 27.0283-88.855 17.5966-26.2948 42.5937-46.7829 71.8317-58.8731zm61.138 82.8941c17.221.001 33.737 6.842 45.914 19.019s19.019 28.693 19.019 45.914h-34.767c-.257-7.825-3.546-15.244-9.172-20.688-5.626-5.445-13.149-8.49-20.978-8.49-7.83 0-15.352 3.045-20.978 8.49-5.626 5.444-8.915 12.863-9.172 20.688h-34.8c0-17.221 6.842-33.737 19.019-45.914s28.694-19.019 45.915-19.019zm-.001-12.74c-20.596.017-40.344 8.204-54.911 22.765s-22.762 34.306-22.788 54.902h-34.7677c.0343-29.817 11.8944-58.404 32.9787-79.488 21.084-21.0842 49.671-32.9443 79.488-32.9786z" fill="#fff"/></svg>