<svg fill="none" height="400" viewBox="0 0 400 400" width="400" xmlns="http://www.w3.org/2000/svg"><path d="m0 0h400v400h-400z" fill="#fff"/><path d="m138.86 52.1402c29.239-12.0901 61.406-15.24 92.434-9.0517 31.028 6.1882 59.525 21.4378 81.889 43.8193 22.363 22.3812 37.588 50.8902 43.752 81.9242 6.163 31.033 2.987 63.197-9.126 92.425-12.114 29.229-32.622 54.21-58.931 71.786-26.309 17.575-57.239 26.956-88.878 26.956v-34.897c24.769 0 48.981-7.345 69.575-21.105 20.595-13.761 36.647-33.32 46.125-56.203 9.479-22.884 11.958-48.064 7.126-72.357s-16.759-46.607-34.273-64.121c-17.514-17.5141-39.829-29.4413-64.121-34.2734-24.293-4.8322-49.474-2.3526-72.357 7.1259-22.883 9.4786-42.441 25.5305-56.202 46.1255-13.7607 20.594-21.1054 44.806-21.1054 69.575h-34.7676c.0257-31.64 9.4318-62.561 27.0283-88.856 17.5966-26.2945 42.5937-46.7826 71.8317-58.8728zm61.138 82.8948c17.221 0 33.737 6.841 45.914 19.018 12.177 12.178 19.019 28.693 19.019 45.914h-34.767c-.257-7.825-3.546-15.243-9.172-20.688s-13.149-8.488-20.978-8.488c-7.83 0-15.352 3.043-20.978 8.488s-8.915 12.863-9.172 20.688h-34.8c.001-17.221 6.842-33.736 19.019-45.914 12.177-12.177 28.694-19.018 45.915-19.018zm-.001-12.74c-20.596.017-40.344 8.204-54.911 22.765s-22.762 34.305-22.788 54.902h-34.7677c.0343-29.818 11.8947-58.404 32.9787-79.488 21.084-21.0839 49.671-32.945 79.488-32.9793z" fill="#000"/></svg>