<svg fill="none" height="490" viewBox="0 0 490 490" width="490" xmlns="http://www.w3.org/2000/svg"><path d="m293.674 157.187c10.658-10.655 28.009-10.655 38.667 0 10.658 10.656 10.658 28.004 0 38.66-6.174 6.173-14.622 8.966-23.2 7.732-.39-.065-.845-.065-1.235 0-2.534-.325-5.199 0-7.733 1.169-3.574 1.625-6.109 4.614-7.343 8.057-1.235 3.379-1.17 7.212.454 10.656 9.163 19.817 4.939 43.533-10.527 58.997-15.467 15.464-39.187 19.687-59.007 10.526-3.575-1.625-7.409-1.69-10.853-.39-3.379 1.234-6.239 3.768-7.863 7.277-1.04 2.274-1.43 4.613-1.3 6.952-.065.455-.065.91 0 1.364 1.43 8.707-1.43 17.609-7.668 23.846-10.658 10.656-28.009 10.656-38.667 0-5.199-5.198-7.993-12.02-7.993-19.362 0-7.277 2.859-14.165 7.993-19.363 6.174-6.172 14.622-8.966 23.2-7.732h.455c.91.195 1.82.325 2.794.325 2.015 0 4.029-.39 5.914-1.299 3.509-1.625 5.979-4.483 7.278-7.797 1.3-3.444 1.3-7.342-.389-10.916-9.163-19.817-4.939-43.533 10.527-58.996 15.467-15.464 39.187-19.688 59.007-10.526 3.51 1.624 7.409 1.689 10.788.455 3.379-1.235 6.304-3.769 7.928-7.278 1.235-2.728 1.56-5.652 1.105-8.446v-.065c-1.43-8.707 1.43-17.608 7.668-23.846zm-27.034 109.157c11.828-11.825 11.828-30.993 0-42.818-11.827-11.825-30.998-11.825-42.825 0-11.828 11.825-11.828 30.993 0 42.818 11.827 11.825 30.998 11.825 42.825 0zm-21.64-204.344c101.053 0 183 81.933 183 182.968s-81.882 183.032-183 183.032-183-81.933-183-183.032c0-101.1 81.947-182.968 183-182.968zm97.544 144.048c16.181-16.179 16.181-42.363 0-58.542-16.182-16.178-42.371-16.178-58.553 0-5.978 5.978-9.747 13.385-11.307 21.117-29.309-11.046-62.971-4.029-85.391 18.387-22.42 22.417-29.439 56.073-18.326 85.442-7.799 1.559-15.207 5.328-21.251 11.37-16.181 16.179-16.181 42.363 0 58.542 16.182 16.179 42.371 16.179 58.552 0 6.044-6.043 9.878-13.58 11.373-21.377 9.098 3.379 18.586 5.068 28.009 5.068 20.99 0 41.721-8.121 57.122-23.52 22.29-22.286 29.374-55.748 18.521-85.052 7.734-1.624 15.207-5.392 21.251-11.435z" fill="#141414"/></svg>